<svg width="128" height="128" xmlns="http://www.w3.org/2000/svg">

 <g>
  <title>background</title>
  <rect fill="none" id="canvas_background" height="130" width="130" y="-1" x="-1"/>
 </g>
 <g>
  <title>Layer 1</title>
  <circle stroke="null" fill="#7159d1" id="svg_1" r="63.6129" cy="64.000001" cx="64.000001"/>
  <path stroke="null" id="svg_3" fill="#FFFFFF" d="m82.220944,42.429954c1.677815,2.330662 2.513459,5.120492 2.513459,8.367315c0,3.346926 -0.846524,6.036654 -2.537397,8.069182c-0.946627,1.140305 -2.339366,2.182683 -4.18257,3.124958c2.798535,1.016264 4.909405,2.628795 6.332611,4.83324c1.423205,2.208797 2.134808,4.885468 2.134808,8.032188c0,3.248999 -0.813882,6.162871 -2.43947,8.741614c-1.038026,1.710458 -2.330662,3.148896 -3.88226,4.313139c-1.751805,1.338335 -3.814799,2.256673 -6.195513,2.752836c-2.378537,0.498339 -4.959457,0.744245 -7.747111,0.744245l-24.699358,0l0,-54.817341l26.490333,0c6.6895,0.100103 11.424813,2.045586 14.212467,5.838623zm-29.765446,3.682054l0,12.086364l13.324596,0c2.380713,0 4.310963,-0.45264 5.797277,-1.357921c1.484138,-0.90528 2.226206,-2.511283 2.226206,-4.815831c0,-2.55263 -0.981446,-4.23915 -2.946514,-5.057384c-1.693048,-0.570153 -3.85397,-0.855229 -6.478413,-0.855229l-11.923152,0zm0,21.16093l0,14.617232l13.309363,0c2.376361,0 4.226093,-0.322071 5.551371,-0.966213c2.402475,-1.190357 3.601536,-3.470967 3.601536,-6.844007c0,-2.850763 -1.162067,-4.809302 -3.490552,-5.875618c-1.299164,-0.59409 -3.124958,-0.90528 -5.479558,-0.931394l-13.49216,0z"/>
 </g>
</svg>